<mxfile host="app.diagrams.net" modified="2024-04-24T14:25:37.161Z" agent="Mozilla/5.0 (Windows NT 10.0; Win64; x64) AppleWebKit/537.36 (KHTML, like Gecko) Chrome/124.0.0.0 Safari/537.36" etag="e-2hohta62xBKdLLSfsV" version="24.2.7" type="device">
  <diagram name="Page-1" id="wUViZiPC8uXndsal970Q">
    <mxGraphModel dx="2868" dy="1544" grid="1" gridSize="10" guides="1" tooltips="1" connect="1" arrows="1" fold="1" page="1" pageScale="1" pageWidth="2339" pageHeight="3300" math="0" shadow="0">
      <root>
        <mxCell id="0" />
        <mxCell id="1" parent="0" />
        <mxCell id="S-JsonbqND__SWyfuir0-1" style="edgeStyle=orthogonalEdgeStyle;rounded=0;orthogonalLoop=1;jettySize=auto;html=1;exitX=0.5;exitY=1;exitDx=0;exitDy=0;entryX=0.5;entryY=0;entryDx=0;entryDy=0;endArrow=none;endFill=0;" parent="1" source="S-JsonbqND__SWyfuir0-3" target="S-JsonbqND__SWyfuir0-59" edge="1">
          <mxGeometry relative="1" as="geometry" />
        </mxCell>
        <mxCell id="S-JsonbqND__SWyfuir0-2" style="edgeStyle=orthogonalEdgeStyle;rounded=0;orthogonalLoop=1;jettySize=auto;html=1;exitX=0.5;exitY=1;exitDx=0;exitDy=0;entryX=0.5;entryY=0;entryDx=0;entryDy=0;endArrow=none;endFill=0;" parent="1" source="S-JsonbqND__SWyfuir0-3" target="S-JsonbqND__SWyfuir0-53" edge="1">
          <mxGeometry relative="1" as="geometry" />
        </mxCell>
        <mxCell id="S-JsonbqND__SWyfuir0-3" value="&lt;span id=&quot;docs-internal-guid-47cff37d-7fff-311f-e86b-dfdaf136b298&quot; style=&quot;font-weight:normal;&quot;&gt;&lt;span style=&quot;font-family: Arial, sans-serif; background-color: rgb(255, 255, 255); font-variant-numeric: normal; font-variant-east-asian: normal; font-variant-alternates: normal; font-variant-position: normal; vertical-align: baseline; white-space-collapse: preserve;&quot;&gt;&lt;font style=&quot;font-size: 18px;&quot;&gt;Development build test results&lt;/font&gt;&lt;/span&gt;&lt;/span&gt;" style="swimlane;whiteSpace=wrap;html=1;startSize=70;" parent="1" vertex="1">
          <mxGeometry x="1902" y="760" width="200" height="130" as="geometry" />
        </mxCell>
        <mxCell id="S-JsonbqND__SWyfuir0-4" value="&lt;font style=&quot;font-size: 19px;&quot;&gt;Eben&lt;/font&gt;" style="text;html=1;align=center;verticalAlign=middle;whiteSpace=wrap;rounded=0;" parent="S-JsonbqND__SWyfuir0-3" vertex="1">
          <mxGeometry x="70" y="80" width="60" height="30" as="geometry" />
        </mxCell>
        <mxCell id="S-JsonbqND__SWyfuir0-5" style="edgeStyle=orthogonalEdgeStyle;rounded=0;orthogonalLoop=1;jettySize=auto;html=1;exitX=0.5;exitY=1;exitDx=0;exitDy=0;endArrow=none;endFill=0;" parent="1" source="S-JsonbqND__SWyfuir0-7" target="S-JsonbqND__SWyfuir0-46" edge="1">
          <mxGeometry relative="1" as="geometry">
            <Array as="points">
              <mxPoint x="1612" y="910" />
              <mxPoint x="1512" y="910" />
            </Array>
          </mxGeometry>
        </mxCell>
        <mxCell id="S-JsonbqND__SWyfuir0-6" style="edgeStyle=orthogonalEdgeStyle;rounded=0;orthogonalLoop=1;jettySize=auto;html=1;exitX=0.5;exitY=1;exitDx=0;exitDy=0;entryX=0.5;entryY=0;entryDx=0;entryDy=0;endArrow=none;endFill=0;" parent="1" source="S-JsonbqND__SWyfuir0-7" target="S-JsonbqND__SWyfuir0-108" edge="1">
          <mxGeometry relative="1" as="geometry">
            <Array as="points">
              <mxPoint x="1612" y="910" />
              <mxPoint x="1677" y="910" />
            </Array>
          </mxGeometry>
        </mxCell>
        <mxCell id="S-JsonbqND__SWyfuir0-7" value="&lt;span id=&quot;docs-internal-guid-ebfd4594-7fff-cd81-c2b8-a175f13138bd&quot; style=&quot;font-weight:normal;&quot;&gt;&lt;span style=&quot;font-family: Arial, sans-serif; background-color: rgb(255, 255, 255); font-variant-numeric: normal; font-variant-east-asian: normal; font-variant-alternates: normal; font-variant-position: normal; vertical-align: baseline; white-space-collapse: preserve;&quot;&gt;&lt;font style=&quot;font-size: 22px;&quot;&gt;Development build&lt;/font&gt;&lt;/span&gt;&lt;/span&gt;" style="swimlane;whiteSpace=wrap;html=1;startSize=70;" parent="1" vertex="1">
          <mxGeometry x="1512" y="760" width="200" height="130" as="geometry">
            <mxRectangle x="1480" y="760" width="330" height="70" as="alternateBounds" />
          </mxGeometry>
        </mxCell>
        <mxCell id="S-JsonbqND__SWyfuir0-8" value="&lt;font style=&quot;font-size: 19px;&quot;&gt;Blessing&lt;/font&gt;" style="text;html=1;align=center;verticalAlign=middle;whiteSpace=wrap;rounded=0;" parent="S-JsonbqND__SWyfuir0-7" vertex="1">
          <mxGeometry x="70" y="80" width="60" height="30" as="geometry" />
        </mxCell>
        <mxCell id="S-JsonbqND__SWyfuir0-9" style="edgeStyle=orthogonalEdgeStyle;rounded=0;orthogonalLoop=1;jettySize=auto;html=1;exitX=0.5;exitY=1;exitDx=0;exitDy=0;entryX=0.5;entryY=0;entryDx=0;entryDy=0;endArrow=none;endFill=0;" parent="1" source="S-JsonbqND__SWyfuir0-11" target="S-JsonbqND__SWyfuir0-41" edge="1">
          <mxGeometry relative="1" as="geometry">
            <Array as="points">
              <mxPoint x="1189" y="910" />
              <mxPoint x="1040" y="910" />
              <mxPoint x="1040" y="1019" />
            </Array>
          </mxGeometry>
        </mxCell>
        <mxCell id="S-JsonbqND__SWyfuir0-10" style="edgeStyle=orthogonalEdgeStyle;rounded=0;orthogonalLoop=1;jettySize=auto;html=1;exitX=0.5;exitY=1;exitDx=0;exitDy=0;entryX=0.5;entryY=0;entryDx=0;entryDy=0;endArrow=none;endFill=0;" parent="1" source="S-JsonbqND__SWyfuir0-11" target="S-JsonbqND__SWyfuir0-36" edge="1">
          <mxGeometry relative="1" as="geometry">
            <Array as="points">
              <mxPoint x="1189" y="910" />
              <mxPoint x="1268" y="910" />
            </Array>
          </mxGeometry>
        </mxCell>
        <mxCell id="S-JsonbqND__SWyfuir0-11" value="&lt;span id=&quot;docs-internal-guid-3bf1f84c-7fff-7296-6e35-516696d25962&quot; style=&quot;font-weight:normal;&quot;&gt;&lt;span style=&quot;font-family: Arial, sans-serif; background-color: rgb(255, 255, 255); font-variant-numeric: normal; font-variant-east-asian: normal; font-variant-alternates: normal; font-variant-position: normal; vertical-align: baseline; white-space-collapse: preserve;&quot;&gt;&lt;font style=&quot;font-size: 21px;&quot;&gt;User Interface design&lt;/font&gt;&lt;/span&gt;&lt;/span&gt;" style="swimlane;whiteSpace=wrap;html=1;startSize=70;" parent="1" vertex="1">
          <mxGeometry x="1089" y="760" width="200" height="130" as="geometry" />
        </mxCell>
        <mxCell id="S-JsonbqND__SWyfuir0-12" value="&lt;span style=&quot;font-size: 19px;&quot;&gt;Avish&lt;/span&gt;" style="text;html=1;align=center;verticalAlign=middle;whiteSpace=wrap;rounded=0;" parent="S-JsonbqND__SWyfuir0-11" vertex="1">
          <mxGeometry x="70" y="80" width="60" height="30" as="geometry" />
        </mxCell>
        <mxCell id="S-JsonbqND__SWyfuir0-13" style="edgeStyle=orthogonalEdgeStyle;rounded=0;orthogonalLoop=1;jettySize=auto;html=1;exitX=0.5;exitY=1;exitDx=0;exitDy=0;entryX=0.5;entryY=0;entryDx=0;entryDy=0;endArrow=none;endFill=0;" parent="1" source="S-JsonbqND__SWyfuir0-14" target="S-JsonbqND__SWyfuir0-73" edge="1">
          <mxGeometry relative="1" as="geometry" />
        </mxCell>
        <mxCell id="S-JsonbqND__SWyfuir0-14" value="&lt;span id=&quot;docs-internal-guid-e99fd4dc-7fff-ce28-9047-07a7098fd81c&quot; style=&quot;font-weight:normal;&quot;&gt;&lt;span style=&quot;font-family: Arial, sans-serif; background-color: rgb(255, 255, 255); font-variant-numeric: normal; font-variant-east-asian: normal; font-variant-alternates: normal; font-variant-position: normal; vertical-align: baseline; white-space-collapse: preserve;&quot;&gt;&lt;font style=&quot;font-size: 20px;&quot;&gt;Project plan report&lt;/font&gt;&lt;/span&gt;&lt;/span&gt;" style="swimlane;whiteSpace=wrap;html=1;startSize=70;" parent="1" vertex="1">
          <mxGeometry x="128" y="760" width="200" height="130" as="geometry" />
        </mxCell>
        <mxCell id="S-JsonbqND__SWyfuir0-15" value="&lt;font style=&quot;font-size: 19px;&quot;&gt;Eben&lt;/font&gt;" style="text;html=1;align=center;verticalAlign=middle;whiteSpace=wrap;rounded=0;" parent="S-JsonbqND__SWyfuir0-14" vertex="1">
          <mxGeometry x="70" y="80" width="60" height="30" as="geometry" />
        </mxCell>
        <mxCell id="S-JsonbqND__SWyfuir0-16" style="edgeStyle=orthogonalEdgeStyle;rounded=0;orthogonalLoop=1;jettySize=auto;html=1;exitX=0.5;exitY=1;exitDx=0;exitDy=0;entryX=0.5;entryY=0;entryDx=0;entryDy=0;endArrow=none;endFill=0;" parent="1" source="S-JsonbqND__SWyfuir0-18" target="S-JsonbqND__SWyfuir0-92" edge="1">
          <mxGeometry relative="1" as="geometry" />
        </mxCell>
        <mxCell id="S-JsonbqND__SWyfuir0-17" style="edgeStyle=orthogonalEdgeStyle;rounded=0;orthogonalLoop=1;jettySize=auto;html=1;exitX=0.5;exitY=1;exitDx=0;exitDy=0;entryX=0.5;entryY=0;entryDx=0;entryDy=0;endArrow=none;endFill=0;" parent="1" source="S-JsonbqND__SWyfuir0-18" target="S-JsonbqND__SWyfuir0-134" edge="1">
          <mxGeometry relative="1" as="geometry" />
        </mxCell>
        <mxCell id="S-JsonbqND__SWyfuir0-18" value="&lt;span id=&quot;docs-internal-guid-826d8983-7fff-2363-a248-5e2e77f247e0&quot; style=&quot;font-weight:normal;&quot;&gt;&lt;span style=&quot;font-family: Arial, sans-serif; background-color: rgb(255, 255, 255); font-variant-numeric: normal; font-variant-east-asian: normal; font-variant-alternates: normal; font-variant-position: normal; vertical-align: baseline; white-space-collapse: preserve;&quot;&gt;&lt;font style=&quot;font-size: 19px;&quot;&gt;Risk identification and mitigation report&lt;/font&gt;&lt;/span&gt;&lt;/span&gt;" style="swimlane;whiteSpace=wrap;html=1;startSize=70;" parent="1" vertex="1">
          <mxGeometry x="584" y="760" width="200" height="130" as="geometry" />
        </mxCell>
        <mxCell id="S-JsonbqND__SWyfuir0-19" value="&lt;font style=&quot;font-size: 19px;&quot;&gt;Kaushil&lt;/font&gt;" style="text;html=1;align=center;verticalAlign=middle;whiteSpace=wrap;rounded=0;" parent="S-JsonbqND__SWyfuir0-18" vertex="1">
          <mxGeometry x="70" y="80" width="60" height="30" as="geometry" />
        </mxCell>
        <mxCell id="S-JsonbqND__SWyfuir0-20" style="edgeStyle=orthogonalEdgeStyle;rounded=0;orthogonalLoop=1;jettySize=auto;html=1;exitX=0.5;exitY=1;exitDx=0;exitDy=0;entryX=0.5;entryY=0;entryDx=0;entryDy=0;endArrow=none;endFill=0;" parent="1" source="S-JsonbqND__SWyfuir0-24" target="S-JsonbqND__SWyfuir0-18" edge="1">
          <mxGeometry relative="1" as="geometry" />
        </mxCell>
        <mxCell id="S-JsonbqND__SWyfuir0-21" style="edgeStyle=orthogonalEdgeStyle;rounded=0;orthogonalLoop=1;jettySize=auto;html=1;exitX=0.5;exitY=1;exitDx=0;exitDy=0;entryX=0.5;entryY=0;entryDx=0;entryDy=0;endArrow=none;endFill=0;" parent="1" source="S-JsonbqND__SWyfuir0-24" target="S-JsonbqND__SWyfuir0-11" edge="1">
          <mxGeometry relative="1" as="geometry" />
        </mxCell>
        <mxCell id="S-JsonbqND__SWyfuir0-22" style="edgeStyle=orthogonalEdgeStyle;rounded=0;orthogonalLoop=1;jettySize=auto;html=1;exitX=0.5;exitY=1;exitDx=0;exitDy=0;entryX=0.5;entryY=0;entryDx=0;entryDy=0;endArrow=none;endFill=0;" parent="1" source="S-JsonbqND__SWyfuir0-24" target="S-JsonbqND__SWyfuir0-14" edge="1">
          <mxGeometry relative="1" as="geometry" />
        </mxCell>
        <mxCell id="S-JsonbqND__SWyfuir0-23" style="edgeStyle=orthogonalEdgeStyle;rounded=0;orthogonalLoop=1;jettySize=auto;html=1;exitX=0.5;exitY=1;exitDx=0;exitDy=0;endArrow=none;endFill=0;" parent="1" source="S-JsonbqND__SWyfuir0-24" target="S-JsonbqND__SWyfuir0-7" edge="1">
          <mxGeometry relative="1" as="geometry" />
        </mxCell>
        <mxCell id="S-JsonbqND__SWyfuir0-24" value="&lt;font style=&quot;font-size: 19px;&quot;&gt;Secure Guard&lt;/font&gt;" style="swimlane;whiteSpace=wrap;html=1;startSize=70;" parent="1" vertex="1">
          <mxGeometry x="870" y="440" width="200" height="130" as="geometry" />
        </mxCell>
        <mxCell id="S-JsonbqND__SWyfuir0-25" value="&lt;font style=&quot;font-size: 19px;&quot;&gt;Kaushil&lt;/font&gt;" style="text;html=1;align=center;verticalAlign=middle;whiteSpace=wrap;rounded=0;" parent="S-JsonbqND__SWyfuir0-24" vertex="1">
          <mxGeometry x="70" y="80" width="60" height="30" as="geometry" />
        </mxCell>
        <mxCell id="S-JsonbqND__SWyfuir0-26" value="&lt;font style=&quot;font-size: 19px;&quot;&gt;Figma Design&lt;/font&gt;" style="swimlane;whiteSpace=wrap;html=1;startSize=80;" parent="1" vertex="1">
          <mxGeometry x="268" y="1189" width="100" height="120" as="geometry" />
        </mxCell>
        <mxCell id="S-JsonbqND__SWyfuir0-27" value="&lt;font style=&quot;font-size: 19px;&quot;&gt;Avish&lt;/font&gt;" style="text;html=1;align=center;verticalAlign=middle;whiteSpace=wrap;rounded=0;" parent="S-JsonbqND__SWyfuir0-26" vertex="1">
          <mxGeometry x="19" y="83" width="60" height="30" as="geometry" />
        </mxCell>
        <mxCell id="S-JsonbqND__SWyfuir0-28" value="&lt;font style=&quot;font-size: 13px;&quot;&gt;Implementing API&lt;/font&gt;" style="swimlane;whiteSpace=wrap;html=1;startSize=70;" parent="1" vertex="1">
          <mxGeometry x="88" y="1372" width="100" height="100" as="geometry" />
        </mxCell>
        <mxCell id="S-JsonbqND__SWyfuir0-29" value="&lt;span style=&quot;font-size: 19px;&quot;&gt;Blessing&lt;/span&gt;" style="text;html=1;align=center;verticalAlign=middle;whiteSpace=wrap;rounded=0;" parent="S-JsonbqND__SWyfuir0-28" vertex="1">
          <mxGeometry x="22" y="74" width="60" height="30" as="geometry" />
        </mxCell>
        <mxCell id="S-JsonbqND__SWyfuir0-30" value="&lt;font style=&quot;font-size: 13px;&quot;&gt;User Login and Registration Functionality&lt;/font&gt;" style="swimlane;whiteSpace=wrap;html=1;startSize=90;" parent="1" vertex="1">
          <mxGeometry x="88" y="1190" width="100" height="130" as="geometry" />
        </mxCell>
        <mxCell id="S-JsonbqND__SWyfuir0-31" value="&lt;font style=&quot;font-size: 19px;&quot;&gt;Kaushil&lt;/font&gt;" style="text;html=1;align=center;verticalAlign=middle;whiteSpace=wrap;rounded=0;" parent="S-JsonbqND__SWyfuir0-30" vertex="1">
          <mxGeometry x="18" y="95" width="60" height="30" as="geometry" />
        </mxCell>
        <mxCell id="S-JsonbqND__SWyfuir0-32" value="&lt;font style=&quot;font-size: 14px;&quot;&gt;Define Requirements&lt;/font&gt;" style="swimlane;whiteSpace=wrap;html=1;startSize=60;" parent="1" vertex="1">
          <mxGeometry x="540" y="1197" width="104" height="90" as="geometry" />
        </mxCell>
        <mxCell id="S-JsonbqND__SWyfuir0-33" value="&lt;span style=&quot;font-size: 19px;&quot;&gt;Kaushil&lt;/span&gt;" style="text;html=1;align=center;verticalAlign=middle;whiteSpace=wrap;rounded=0;" parent="S-JsonbqND__SWyfuir0-32" vertex="1">
          <mxGeometry x="24" y="59" width="60" height="30" as="geometry" />
        </mxCell>
        <mxCell id="S-JsonbqND__SWyfuir0-34" style="edgeStyle=orthogonalEdgeStyle;rounded=0;orthogonalLoop=1;jettySize=auto;html=1;exitX=0;exitY=0.5;exitDx=0;exitDy=0;entryX=0;entryY=0.5;entryDx=0;entryDy=0;endArrow=none;endFill=0;" parent="1" source="S-JsonbqND__SWyfuir0-36" target="S-JsonbqND__SWyfuir0-100" edge="1">
          <mxGeometry relative="1" as="geometry">
            <Array as="points">
              <mxPoint x="1183" y="1064" />
              <mxPoint x="1183" y="1460" />
              <mxPoint x="1213" y="1460" />
            </Array>
          </mxGeometry>
        </mxCell>
        <mxCell id="S-JsonbqND__SWyfuir0-35" style="edgeStyle=orthogonalEdgeStyle;rounded=0;orthogonalLoop=1;jettySize=auto;html=1;exitX=0;exitY=0.5;exitDx=0;exitDy=0;entryX=0;entryY=0.5;entryDx=0;entryDy=0;endArrow=none;endFill=0;" parent="1" source="S-JsonbqND__SWyfuir0-36" target="S-JsonbqND__SWyfuir0-139" edge="1">
          <mxGeometry relative="1" as="geometry">
            <Array as="points">
              <mxPoint x="1183" y="1064" />
              <mxPoint x="1183" y="1602" />
            </Array>
          </mxGeometry>
        </mxCell>
        <mxCell id="vnPEtLpJmR6V2pBJsZpJ-1" style="edgeStyle=orthogonalEdgeStyle;rounded=0;orthogonalLoop=1;jettySize=auto;html=1;exitX=0;exitY=0.5;exitDx=0;exitDy=0;entryX=0;entryY=0.5;entryDx=0;entryDy=0;endArrow=none;endFill=0;" parent="1" source="S-JsonbqND__SWyfuir0-36" target="S-JsonbqND__SWyfuir0-102" edge="1">
          <mxGeometry relative="1" as="geometry">
            <Array as="points">
              <mxPoint x="1180" y="1064" />
              <mxPoint x="1180" y="1270" />
            </Array>
          </mxGeometry>
        </mxCell>
        <mxCell id="S-JsonbqND__SWyfuir0-36" value="&lt;span style=&quot;font-size: 19px;&quot;&gt;Front-end Development&lt;/span&gt;" style="swimlane;whiteSpace=wrap;html=1;startSize=50;" parent="1" vertex="1">
          <mxGeometry x="1208" y="1019" width="120" height="90" as="geometry" />
        </mxCell>
        <mxCell id="S-JsonbqND__SWyfuir0-37" value="&lt;font style=&quot;font-size: 19px;&quot;&gt;Blessing&lt;/font&gt;" style="text;html=1;align=center;verticalAlign=middle;whiteSpace=wrap;rounded=0;" parent="S-JsonbqND__SWyfuir0-36" vertex="1">
          <mxGeometry x="30" y="56" width="60" height="30" as="geometry" />
        </mxCell>
        <mxCell id="S-JsonbqND__SWyfuir0-38" style="edgeStyle=orthogonalEdgeStyle;rounded=0;orthogonalLoop=1;jettySize=auto;html=1;exitX=0;exitY=0.5;exitDx=0;exitDy=0;entryX=0;entryY=0.5;entryDx=0;entryDy=0;endArrow=none;endFill=0;" parent="1" source="S-JsonbqND__SWyfuir0-41" target="S-JsonbqND__SWyfuir0-104" edge="1">
          <mxGeometry relative="1" as="geometry">
            <Array as="points">
              <mxPoint x="962" y="1064" />
              <mxPoint x="962" y="1580" />
              <mxPoint x="982" y="1580" />
            </Array>
          </mxGeometry>
        </mxCell>
        <mxCell id="S-JsonbqND__SWyfuir0-39" style="edgeStyle=orthogonalEdgeStyle;rounded=0;orthogonalLoop=1;jettySize=auto;html=1;exitX=0;exitY=0.5;exitDx=0;exitDy=0;entryX=0;entryY=0.5;entryDx=0;entryDy=0;endArrow=none;endFill=0;" parent="1" source="S-JsonbqND__SWyfuir0-94" target="S-JsonbqND__SWyfuir0-96" edge="1">
          <mxGeometry relative="1" as="geometry">
            <Array as="points">
              <mxPoint x="962" y="1265" />
              <mxPoint x="962" y="1440" />
              <mxPoint x="984" y="1440" />
            </Array>
          </mxGeometry>
        </mxCell>
        <mxCell id="S-JsonbqND__SWyfuir0-41" value="&lt;font style=&quot;font-size: 14px;&quot;&gt;Back-end Development&lt;/font&gt;" style="swimlane;whiteSpace=wrap;html=1;startSize=50;" parent="1" vertex="1">
          <mxGeometry x="984" y="1019" width="120" height="90" as="geometry" />
        </mxCell>
        <mxCell id="S-JsonbqND__SWyfuir0-42" value="&lt;font style=&quot;font-size: 19px;&quot;&gt;Avish&lt;/font&gt;" style="text;html=1;align=center;verticalAlign=middle;whiteSpace=wrap;rounded=0;" parent="S-JsonbqND__SWyfuir0-41" vertex="1">
          <mxGeometry x="30" y="55" width="60" height="30" as="geometry" />
        </mxCell>
        <mxCell id="S-JsonbqND__SWyfuir0-43" style="edgeStyle=orthogonalEdgeStyle;rounded=0;orthogonalLoop=1;jettySize=auto;html=1;exitX=0;exitY=0.5;exitDx=0;exitDy=0;entryX=0;entryY=0.5;entryDx=0;entryDy=0;endArrow=none;endFill=0;" parent="1" source="S-JsonbqND__SWyfuir0-46" target="S-JsonbqND__SWyfuir0-118" edge="1">
          <mxGeometry relative="1" as="geometry" />
        </mxCell>
        <mxCell id="S-JsonbqND__SWyfuir0-44" style="edgeStyle=orthogonalEdgeStyle;rounded=0;orthogonalLoop=1;jettySize=auto;html=1;exitX=0;exitY=0.5;exitDx=0;exitDy=0;entryX=0;entryY=0.5;entryDx=0;entryDy=0;endArrow=none;endFill=0;" parent="1" source="S-JsonbqND__SWyfuir0-46" target="S-JsonbqND__SWyfuir0-114" edge="1">
          <mxGeometry relative="1" as="geometry" />
        </mxCell>
        <mxCell id="S-JsonbqND__SWyfuir0-45" style="edgeStyle=orthogonalEdgeStyle;rounded=0;orthogonalLoop=1;jettySize=auto;html=1;exitX=0;exitY=0.5;exitDx=0;exitDy=0;entryX=0;entryY=0.5;entryDx=0;entryDy=0;endArrow=none;endFill=0;" parent="1" source="S-JsonbqND__SWyfuir0-46" target="S-JsonbqND__SWyfuir0-116" edge="1">
          <mxGeometry relative="1" as="geometry" />
        </mxCell>
        <mxCell id="S-JsonbqND__SWyfuir0-46" value="&lt;font style=&quot;font-size: 19px;&quot;&gt;Content Compilation&lt;/font&gt;" style="swimlane;whiteSpace=wrap;html=1;startSize=50;" parent="1" vertex="1">
          <mxGeometry x="1452" y="1019" width="120" height="90" as="geometry" />
        </mxCell>
        <mxCell id="S-JsonbqND__SWyfuir0-47" value="&lt;font style=&quot;font-size: 19px;&quot;&gt;Blessing&lt;/font&gt;" style="text;html=1;align=center;verticalAlign=middle;whiteSpace=wrap;rounded=0;" parent="S-JsonbqND__SWyfuir0-46" vertex="1">
          <mxGeometry x="30" y="56" width="60" height="30" as="geometry" />
        </mxCell>
        <mxCell id="S-JsonbqND__SWyfuir0-48" value="&lt;span style=&quot;font-size: 19px;&quot;&gt;Incident Location&lt;/span&gt;" style="swimlane;whiteSpace=wrap;html=1;startSize=80;" parent="1" vertex="1">
          <mxGeometry x="1617" y="1232" width="120" height="120" as="geometry" />
        </mxCell>
        <mxCell id="S-JsonbqND__SWyfuir0-49" value="&lt;span style=&quot;font-size: 19px;&quot;&gt;Kaushil&lt;/span&gt;" style="text;html=1;align=center;verticalAlign=middle;whiteSpace=wrap;rounded=0;" parent="S-JsonbqND__SWyfuir0-48" vertex="1">
          <mxGeometry x="30" y="84" width="60" height="30" as="geometry" />
        </mxCell>
        <mxCell id="S-JsonbqND__SWyfuir0-50" style="edgeStyle=orthogonalEdgeStyle;rounded=0;orthogonalLoop=1;jettySize=auto;html=1;exitX=0;exitY=0.5;exitDx=0;exitDy=0;entryX=0;entryY=0.5;entryDx=0;entryDy=0;endArrow=none;endFill=0;" parent="1" source="S-JsonbqND__SWyfuir0-53" target="S-JsonbqND__SWyfuir0-55" edge="1">
          <mxGeometry relative="1" as="geometry" />
        </mxCell>
        <mxCell id="S-JsonbqND__SWyfuir0-51" style="edgeStyle=orthogonalEdgeStyle;rounded=0;orthogonalLoop=1;jettySize=auto;html=1;exitX=0;exitY=0.5;exitDx=0;exitDy=0;entryX=0;entryY=0.5;entryDx=0;entryDy=0;endArrow=none;endFill=0;" parent="1" source="S-JsonbqND__SWyfuir0-53" target="S-JsonbqND__SWyfuir0-128" edge="1">
          <mxGeometry relative="1" as="geometry" />
        </mxCell>
        <mxCell id="S-JsonbqND__SWyfuir0-52" style="edgeStyle=orthogonalEdgeStyle;rounded=0;orthogonalLoop=1;jettySize=auto;html=1;exitX=0;exitY=0.5;exitDx=0;exitDy=0;entryX=0;entryY=0.5;entryDx=0;entryDy=0;endArrow=none;endFill=0;" parent="1" source="S-JsonbqND__SWyfuir0-53" target="S-JsonbqND__SWyfuir0-126" edge="1">
          <mxGeometry relative="1" as="geometry" />
        </mxCell>
        <mxCell id="S-JsonbqND__SWyfuir0-53" value="&lt;span style=&quot;font-size: 19px;&quot;&gt;Content Creation&lt;/span&gt;" style="swimlane;whiteSpace=wrap;html=1;startSize=50;" parent="1" vertex="1">
          <mxGeometry x="2052" y="1018" width="120" height="90" as="geometry" />
        </mxCell>
        <mxCell id="S-JsonbqND__SWyfuir0-54" value="&lt;font style=&quot;font-size: 19px;&quot;&gt;Eben&lt;/font&gt;" style="text;html=1;align=center;verticalAlign=middle;whiteSpace=wrap;rounded=0;" parent="S-JsonbqND__SWyfuir0-53" vertex="1">
          <mxGeometry x="30" y="56" width="60" height="30" as="geometry" />
        </mxCell>
        <mxCell id="S-JsonbqND__SWyfuir0-55" value="&lt;span style=&quot;font-size: 19px;&quot;&gt;Test and Monitor&lt;/span&gt;" style="swimlane;whiteSpace=wrap;html=1;startSize=50;" parent="1" vertex="1">
          <mxGeometry x="2057" y="1552" width="120" height="90" as="geometry" />
        </mxCell>
        <mxCell id="S-JsonbqND__SWyfuir0-56" value="&lt;span style=&quot;font-size: 19px;&quot;&gt;Eben&lt;/span&gt;" style="text;html=1;align=center;verticalAlign=middle;whiteSpace=wrap;rounded=0;" parent="S-JsonbqND__SWyfuir0-55" vertex="1">
          <mxGeometry x="30" y="56" width="60" height="30" as="geometry" />
        </mxCell>
        <mxCell id="S-JsonbqND__SWyfuir0-57" style="edgeStyle=orthogonalEdgeStyle;rounded=0;orthogonalLoop=1;jettySize=auto;html=1;exitX=0;exitY=0.5;exitDx=0;exitDy=0;entryX=0;entryY=0.5;entryDx=0;entryDy=0;endArrow=none;endFill=0;" parent="1" source="S-JsonbqND__SWyfuir0-59" target="S-JsonbqND__SWyfuir0-120" edge="1">
          <mxGeometry relative="1" as="geometry" />
        </mxCell>
        <mxCell id="S-JsonbqND__SWyfuir0-58" style="edgeStyle=orthogonalEdgeStyle;rounded=0;orthogonalLoop=1;jettySize=auto;html=1;exitX=0;exitY=0.5;exitDx=0;exitDy=0;entryX=0;entryY=0.5;entryDx=0;entryDy=0;endArrow=none;endFill=0;" parent="1" source="S-JsonbqND__SWyfuir0-59" target="S-JsonbqND__SWyfuir0-122" edge="1">
          <mxGeometry relative="1" as="geometry" />
        </mxCell>
        <mxCell id="S-JsonbqND__SWyfuir0-59" value="&lt;font style=&quot;font-size: 17px;&quot;&gt;Notification Development&lt;/font&gt;" style="swimlane;whiteSpace=wrap;html=1;startSize=90;" parent="1" vertex="1">
          <mxGeometry x="1862" y="1018" width="120" height="130" as="geometry" />
        </mxCell>
        <mxCell id="S-JsonbqND__SWyfuir0-60" value="&lt;font style=&quot;font-size: 19px;&quot;&gt;Kaushil&lt;/font&gt;" style="text;html=1;align=center;verticalAlign=middle;whiteSpace=wrap;rounded=0;" parent="S-JsonbqND__SWyfuir0-59" vertex="1">
          <mxGeometry x="30" y="94" width="60" height="30" as="geometry" />
        </mxCell>
        <mxCell id="S-JsonbqND__SWyfuir0-61" value="&lt;font style=&quot;font-size: 17px;&quot;&gt;Encryption&lt;/font&gt;" style="swimlane;whiteSpace=wrap;html=1;startSize=50;" parent="1" vertex="1">
          <mxGeometry x="88" y="1522" width="100" height="100" as="geometry" />
        </mxCell>
        <mxCell id="S-JsonbqND__SWyfuir0-62" value="&lt;span style=&quot;font-size: 19px;&quot;&gt;Eben&lt;/span&gt;" style="text;html=1;align=center;verticalAlign=middle;whiteSpace=wrap;rounded=0;" parent="S-JsonbqND__SWyfuir0-61" vertex="1">
          <mxGeometry x="17" y="60" width="60" height="30" as="geometry" />
        </mxCell>
        <mxCell id="S-JsonbqND__SWyfuir0-63" value="&lt;font style=&quot;font-size: 19px;&quot;&gt;HTML and CCS styling&lt;/font&gt;" style="swimlane;whiteSpace=wrap;html=1;startSize=90;" parent="1" vertex="1">
          <mxGeometry x="268" y="1369" width="100" height="130" as="geometry" />
        </mxCell>
        <mxCell id="S-JsonbqND__SWyfuir0-64" value="&lt;span style=&quot;font-size: 19px;&quot;&gt;Kaushil&lt;/span&gt;" style="text;html=1;align=center;verticalAlign=middle;whiteSpace=wrap;rounded=0;" parent="S-JsonbqND__SWyfuir0-63" vertex="1">
          <mxGeometry x="19" y="93" width="60" height="30" as="geometry" />
        </mxCell>
        <mxCell id="S-JsonbqND__SWyfuir0-65" style="edgeStyle=orthogonalEdgeStyle;rounded=0;orthogonalLoop=1;jettySize=auto;html=1;exitX=0;exitY=0.5;exitDx=0;exitDy=0;entryX=0;entryY=0.5;entryDx=0;entryDy=0;endArrow=none;endFill=0;" parent="1" source="S-JsonbqND__SWyfuir0-68" target="S-JsonbqND__SWyfuir0-61" edge="1">
          <mxGeometry relative="1" as="geometry" />
        </mxCell>
        <mxCell id="S-JsonbqND__SWyfuir0-66" style="edgeStyle=orthogonalEdgeStyle;rounded=0;orthogonalLoop=1;jettySize=auto;html=1;exitX=0;exitY=0.5;exitDx=0;exitDy=0;entryX=0;entryY=0.5;entryDx=0;entryDy=0;endArrow=none;endFill=0;" parent="1" source="S-JsonbqND__SWyfuir0-68" target="S-JsonbqND__SWyfuir0-30" edge="1">
          <mxGeometry relative="1" as="geometry" />
        </mxCell>
        <mxCell id="S-JsonbqND__SWyfuir0-67" style="edgeStyle=orthogonalEdgeStyle;rounded=0;orthogonalLoop=1;jettySize=auto;html=1;exitX=0;exitY=0.5;exitDx=0;exitDy=0;entryX=0;entryY=0.5;entryDx=0;entryDy=0;endArrow=none;endFill=0;" parent="1" source="S-JsonbqND__SWyfuir0-68" target="S-JsonbqND__SWyfuir0-28" edge="1">
          <mxGeometry relative="1" as="geometry" />
        </mxCell>
        <mxCell id="S-JsonbqND__SWyfuir0-68" value="&lt;font style=&quot;font-size: 17px;&quot;&gt;Back-end Development&lt;/font&gt;" style="swimlane;whiteSpace=wrap;html=1;startSize=50;" parent="1" vertex="1">
          <mxGeometry x="78" y="1018" width="120" height="90" as="geometry" />
        </mxCell>
        <mxCell id="S-JsonbqND__SWyfuir0-69" value="&lt;font style=&quot;font-size: 19px;&quot;&gt;Eben&lt;/font&gt;" style="text;html=1;align=center;verticalAlign=middle;whiteSpace=wrap;rounded=0;" parent="S-JsonbqND__SWyfuir0-68" vertex="1">
          <mxGeometry x="30" y="56" width="60" height="30" as="geometry" />
        </mxCell>
        <mxCell id="S-JsonbqND__SWyfuir0-70" style="edgeStyle=orthogonalEdgeStyle;rounded=0;orthogonalLoop=1;jettySize=auto;html=1;exitX=0;exitY=0.5;exitDx=0;exitDy=0;entryX=0;entryY=0.5;entryDx=0;entryDy=0;endArrow=none;endFill=0;" parent="1" source="S-JsonbqND__SWyfuir0-73" target="S-JsonbqND__SWyfuir0-87" edge="1">
          <mxGeometry relative="1" as="geometry" />
        </mxCell>
        <mxCell id="S-JsonbqND__SWyfuir0-71" style="edgeStyle=orthogonalEdgeStyle;rounded=0;orthogonalLoop=1;jettySize=auto;html=1;exitX=0;exitY=0.5;exitDx=0;exitDy=0;entryX=0;entryY=0.5;entryDx=0;entryDy=0;endArrow=none;endFill=0;" parent="1" source="S-JsonbqND__SWyfuir0-73" target="S-JsonbqND__SWyfuir0-63" edge="1">
          <mxGeometry relative="1" as="geometry" />
        </mxCell>
        <mxCell id="S-JsonbqND__SWyfuir0-72" style="edgeStyle=orthogonalEdgeStyle;rounded=0;orthogonalLoop=1;jettySize=auto;html=1;exitX=0;exitY=0.5;exitDx=0;exitDy=0;entryX=0;entryY=0.5;entryDx=0;entryDy=0;endArrow=none;endFill=0;" parent="1" source="S-JsonbqND__SWyfuir0-73" target="S-JsonbqND__SWyfuir0-26" edge="1">
          <mxGeometry relative="1" as="geometry" />
        </mxCell>
        <mxCell id="S-JsonbqND__SWyfuir0-73" value="&lt;font style=&quot;font-size: 19px;&quot;&gt;Front-end Development&lt;/font&gt;" style="swimlane;whiteSpace=wrap;html=1;startSize=50;" parent="1" vertex="1">
          <mxGeometry x="258" y="1018" width="120" height="90" as="geometry" />
        </mxCell>
        <mxCell id="S-JsonbqND__SWyfuir0-74" value="&lt;span style=&quot;font-size: 19px;&quot;&gt;Blessing&lt;/span&gt;" style="text;html=1;align=center;verticalAlign=middle;whiteSpace=wrap;rounded=0;" parent="S-JsonbqND__SWyfuir0-73" vertex="1">
          <mxGeometry x="30" y="56" width="60" height="30" as="geometry" />
        </mxCell>
        <mxCell id="S-JsonbqND__SWyfuir0-75" value="&lt;font style=&quot;font-size: 16px;&quot;&gt;Implement Algorithm&lt;/font&gt;" style="swimlane;whiteSpace=wrap;html=1;startSize=70;" parent="1" vertex="1">
          <mxGeometry x="544" y="1480" width="115" height="100" as="geometry" />
        </mxCell>
        <mxCell id="S-JsonbqND__SWyfuir0-76" value="&lt;span style=&quot;font-size: 19px;&quot;&gt;Avish&lt;/span&gt;" style="text;html=1;align=center;verticalAlign=middle;whiteSpace=wrap;rounded=0;" parent="S-JsonbqND__SWyfuir0-75" vertex="1">
          <mxGeometry x="30" y="74" width="60" height="24" as="geometry" />
        </mxCell>
        <mxCell id="S-JsonbqND__SWyfuir0-77" value="&lt;span style=&quot;font-size: 19px;&quot;&gt;Database Design&lt;/span&gt;" style="swimlane;whiteSpace=wrap;html=1;startSize=70;" parent="1" vertex="1">
          <mxGeometry x="542" y="1318" width="120" height="100" as="geometry" />
        </mxCell>
        <mxCell id="S-JsonbqND__SWyfuir0-78" value="&lt;span style=&quot;font-size: 19px;&quot;&gt;Eben&lt;/span&gt;" style="text;html=1;align=center;verticalAlign=middle;whiteSpace=wrap;rounded=0;" parent="S-JsonbqND__SWyfuir0-77" vertex="1">
          <mxGeometry x="30" y="74" width="60" height="24" as="geometry" />
        </mxCell>
        <mxCell id="S-JsonbqND__SWyfuir0-79" value="&lt;font style=&quot;font-size: 22px;&quot;&gt;2.1.2&lt;/font&gt;" style="text;html=1;align=center;verticalAlign=middle;resizable=0;points=[];autosize=1;strokeColor=none;fillColor=none;" parent="S-JsonbqND__SWyfuir0-77" vertex="1">
          <mxGeometry x="50" y="-30" width="70" height="40" as="geometry" />
        </mxCell>
        <mxCell id="S-JsonbqND__SWyfuir0-83" value="&lt;font style=&quot;font-size: 16px;&quot;&gt;Figma Design&lt;/font&gt;" style="swimlane;whiteSpace=wrap;html=1;startSize=50;" parent="1" vertex="1">
          <mxGeometry x="711" y="1196" width="102" height="90" as="geometry" />
        </mxCell>
        <mxCell id="S-JsonbqND__SWyfuir0-84" value="&lt;span style=&quot;font-size: 19px;&quot;&gt;Blessing&lt;/span&gt;" style="text;html=1;align=center;verticalAlign=middle;whiteSpace=wrap;rounded=0;" parent="S-JsonbqND__SWyfuir0-83" vertex="1">
          <mxGeometry x="23" y="56" width="60" height="30" as="geometry" />
        </mxCell>
        <mxCell id="S-JsonbqND__SWyfuir0-85" value="&lt;font style=&quot;font-size: 19px;&quot;&gt;HTML and CSS styling&lt;/font&gt;" style="swimlane;whiteSpace=wrap;html=1;startSize=90;" parent="1" vertex="1">
          <mxGeometry x="711" y="1328" width="112" height="130" as="geometry" />
        </mxCell>
        <mxCell id="S-JsonbqND__SWyfuir0-86" value="&lt;span style=&quot;font-size: 19px;&quot;&gt;Avish&lt;/span&gt;" style="text;html=1;align=center;verticalAlign=middle;whiteSpace=wrap;rounded=0;" parent="S-JsonbqND__SWyfuir0-85" vertex="1">
          <mxGeometry x="30" y="93" width="60" height="30" as="geometry" />
        </mxCell>
        <mxCell id="S-JsonbqND__SWyfuir0-87" value="&lt;font style=&quot;font-size: 16px;&quot;&gt;Java script Interactions&lt;/font&gt;" style="swimlane;whiteSpace=wrap;html=1;startSize=110;" parent="1" vertex="1">
          <mxGeometry x="268" y="1549" width="100" height="150" as="geometry" />
        </mxCell>
        <mxCell id="S-JsonbqND__SWyfuir0-88" value="&lt;span style=&quot;font-size: 19px;&quot;&gt;Eben&lt;/span&gt;" style="text;html=1;align=center;verticalAlign=middle;whiteSpace=wrap;rounded=0;" parent="S-JsonbqND__SWyfuir0-87" vertex="1">
          <mxGeometry x="21" y="113" width="60" height="30" as="geometry" />
        </mxCell>
        <mxCell id="S-JsonbqND__SWyfuir0-90" style="edgeStyle=orthogonalEdgeStyle;rounded=0;orthogonalLoop=1;jettySize=auto;html=1;exitX=0;exitY=0.5;exitDx=0;exitDy=0;endArrow=none;endFill=0;" parent="1" source="S-JsonbqND__SWyfuir0-92" edge="1">
          <mxGeometry relative="1" as="geometry">
            <mxPoint x="542" y="1520" as="targetPoint" />
            <Array as="points">
              <mxPoint x="512" y="1063" />
              <mxPoint x="512" y="1516" />
              <mxPoint x="543" y="1516" />
            </Array>
          </mxGeometry>
        </mxCell>
        <mxCell id="S-JsonbqND__SWyfuir0-91" style="edgeStyle=orthogonalEdgeStyle;rounded=0;orthogonalLoop=1;jettySize=auto;html=1;exitX=0;exitY=0.5;exitDx=0;exitDy=0;entryX=0;entryY=0.5;entryDx=0;entryDy=0;endArrow=none;endFill=0;" parent="1" source="S-JsonbqND__SWyfuir0-92" target="S-JsonbqND__SWyfuir0-32" edge="1">
          <mxGeometry relative="1" as="geometry" />
        </mxCell>
        <mxCell id="S-JsonbqND__SWyfuir0-92" value="&lt;font style=&quot;font-size: 19px;&quot;&gt;Content Compilation&lt;/font&gt;" style="swimlane;whiteSpace=wrap;html=1;startSize=52;" parent="1" vertex="1">
          <mxGeometry x="532" y="1018" width="120" height="90" as="geometry" />
        </mxCell>
        <mxCell id="S-JsonbqND__SWyfuir0-93" value="&lt;font style=&quot;font-size: 19px;&quot;&gt;Kaushil&lt;/font&gt;" style="text;html=1;align=center;verticalAlign=middle;whiteSpace=wrap;rounded=0;" parent="S-JsonbqND__SWyfuir0-92" vertex="1">
          <mxGeometry x="30" y="56" width="60" height="30" as="geometry" />
        </mxCell>
        <mxCell id="S-JsonbqND__SWyfuir0-94" value="&lt;span style=&quot;font-size: 19px;&quot;&gt;Access Location&lt;/span&gt;" style="swimlane;whiteSpace=wrap;html=1;startSize=50;" parent="1" vertex="1">
          <mxGeometry x="982" y="1220" width="120" height="90" as="geometry" />
        </mxCell>
        <mxCell id="S-JsonbqND__SWyfuir0-95" value="&lt;font style=&quot;font-size: 19px;&quot;&gt;Kaushil&lt;/font&gt;" style="text;html=1;align=center;verticalAlign=middle;whiteSpace=wrap;rounded=0;" parent="S-JsonbqND__SWyfuir0-94" vertex="1">
          <mxGeometry x="30" y="56" width="60" height="30" as="geometry" />
        </mxCell>
        <mxCell id="S-JsonbqND__SWyfuir0-96" value="&lt;span style=&quot;font-size: 13px;&quot;&gt;Alert functionality to nearby residents&lt;/span&gt;" style="swimlane;whiteSpace=wrap;html=1;startSize=50;" parent="1" vertex="1">
          <mxGeometry x="984" y="1362" width="120" height="90" as="geometry" />
        </mxCell>
        <mxCell id="S-JsonbqND__SWyfuir0-97" value="&lt;font style=&quot;font-size: 19px;&quot;&gt;Avish&lt;/font&gt;" style="text;html=1;align=center;verticalAlign=middle;whiteSpace=wrap;rounded=0;" parent="S-JsonbqND__SWyfuir0-96" vertex="1">
          <mxGeometry x="33" y="56" width="60" height="30" as="geometry" />
        </mxCell>
        <mxCell id="S-JsonbqND__SWyfuir0-98" value="&lt;font style=&quot;font-size: 16px;&quot;&gt;Implement API&lt;/font&gt;" style="swimlane;whiteSpace=wrap;html=1;startSize=90;" parent="1" vertex="1">
          <mxGeometry x="712" y="1518" width="101" height="130" as="geometry" />
        </mxCell>
        <mxCell id="S-JsonbqND__SWyfuir0-99" value="&lt;span style=&quot;font-size: 19px;&quot;&gt;Kaushil&lt;/span&gt;" style="text;html=1;align=center;verticalAlign=middle;whiteSpace=wrap;rounded=0;" parent="S-JsonbqND__SWyfuir0-98" vertex="1">
          <mxGeometry x="30" y="93" width="60" height="30" as="geometry" />
        </mxCell>
        <mxCell id="S-JsonbqND__SWyfuir0-100" value="&lt;span style=&quot;font-size: 19px;&quot;&gt;HTML and CSS styling&lt;/span&gt;" style="swimlane;whiteSpace=wrap;html=1;startSize=50;" parent="1" vertex="1">
          <mxGeometry x="1213" y="1382" width="127" height="98" as="geometry" />
        </mxCell>
        <mxCell id="S-JsonbqND__SWyfuir0-101" value="&lt;span style=&quot;font-size: 19px;&quot;&gt;Eben&lt;/span&gt;" style="text;html=1;align=center;verticalAlign=middle;whiteSpace=wrap;rounded=0;" parent="S-JsonbqND__SWyfuir0-100" vertex="1">
          <mxGeometry x="39" y="58" width="60" height="30" as="geometry" />
        </mxCell>
        <mxCell id="S-JsonbqND__SWyfuir0-102" value="&lt;font style=&quot;font-size: 16px;&quot;&gt;Figma Design&lt;/font&gt;" style="swimlane;whiteSpace=wrap;html=1;startSize=50;" parent="1" vertex="1">
          <mxGeometry x="1213" y="1220" width="120" height="100" as="geometry" />
        </mxCell>
        <mxCell id="S-JsonbqND__SWyfuir0-103" value="&lt;span style=&quot;font-size: 19px;&quot;&gt;Blessing&lt;/span&gt;" style="text;html=1;align=center;verticalAlign=middle;whiteSpace=wrap;rounded=0;" parent="S-JsonbqND__SWyfuir0-102" vertex="1">
          <mxGeometry x="30" y="65" width="60" height="30" as="geometry" />
        </mxCell>
        <mxCell id="S-JsonbqND__SWyfuir0-104" value="&lt;font style=&quot;font-size: 16px;&quot;&gt;Testing and deployment&lt;/font&gt;" style="swimlane;whiteSpace=wrap;html=1;startSize=90;" parent="1" vertex="1">
          <mxGeometry x="982" y="1500" width="120" height="130" as="geometry" />
        </mxCell>
        <mxCell id="S-JsonbqND__SWyfuir0-105" value="&lt;span style=&quot;font-size: 19px;&quot;&gt;Eben&lt;/span&gt;" style="text;html=1;align=center;verticalAlign=middle;whiteSpace=wrap;rounded=0;" parent="S-JsonbqND__SWyfuir0-104" vertex="1">
          <mxGeometry x="32" y="93" width="60" height="30" as="geometry" />
        </mxCell>
        <mxCell id="S-JsonbqND__SWyfuir0-106" style="edgeStyle=orthogonalEdgeStyle;rounded=0;orthogonalLoop=1;jettySize=auto;html=1;exitX=0;exitY=0.5;exitDx=0;exitDy=0;entryX=0;entryY=0.5;entryDx=0;entryDy=0;endArrow=none;endFill=0;" parent="1" source="S-JsonbqND__SWyfuir0-108" target="S-JsonbqND__SWyfuir0-112" edge="1">
          <mxGeometry relative="1" as="geometry" />
        </mxCell>
        <mxCell id="S-JsonbqND__SWyfuir0-107" style="edgeStyle=orthogonalEdgeStyle;rounded=0;orthogonalLoop=1;jettySize=auto;html=1;exitX=0;exitY=0.5;exitDx=0;exitDy=0;entryX=0;entryY=0.5;entryDx=0;entryDy=0;endArrow=none;endFill=0;" parent="1" source="S-JsonbqND__SWyfuir0-108" target="S-JsonbqND__SWyfuir0-110" edge="1">
          <mxGeometry relative="1" as="geometry" />
        </mxCell>
        <mxCell id="S-JsonbqND__SWyfuir0-108" value="&lt;span style=&quot;font-size: 19px;&quot;&gt;Resolve Incidents&lt;/span&gt;" style="swimlane;whiteSpace=wrap;html=1;startSize=95;" parent="1" vertex="1">
          <mxGeometry x="1617" y="1019" width="120" height="135" as="geometry" />
        </mxCell>
        <mxCell id="S-JsonbqND__SWyfuir0-109" value="&lt;font style=&quot;font-size: 19px;&quot;&gt;Eben&lt;/font&gt;" style="text;html=1;align=center;verticalAlign=middle;whiteSpace=wrap;rounded=0;" parent="S-JsonbqND__SWyfuir0-108" vertex="1">
          <mxGeometry x="30" y="97" width="60" height="30" as="geometry" />
        </mxCell>
        <mxCell id="S-JsonbqND__SWyfuir0-110" value="&lt;span style=&quot;font-size: 11px;&quot;&gt;Notifying Local Authorities&lt;/span&gt;" style="swimlane;whiteSpace=wrap;html=1;startSize=50;" parent="1" vertex="1">
          <mxGeometry x="1622" y="1420" width="120" height="90" as="geometry" />
        </mxCell>
        <mxCell id="S-JsonbqND__SWyfuir0-111" value="&lt;span style=&quot;font-size: 19px;&quot;&gt;Avish&lt;/span&gt;" style="text;html=1;align=center;verticalAlign=middle;whiteSpace=wrap;rounded=0;" parent="S-JsonbqND__SWyfuir0-110" vertex="1">
          <mxGeometry x="30" y="56" width="60" height="30" as="geometry" />
        </mxCell>
        <mxCell id="S-JsonbqND__SWyfuir0-112" value="&lt;span style=&quot;font-size: 19px;&quot;&gt;Test and Monitor&lt;/span&gt;" style="swimlane;whiteSpace=wrap;html=1;startSize=50;" parent="1" vertex="1">
          <mxGeometry x="1622" y="1560" width="120" height="90" as="geometry" />
        </mxCell>
        <mxCell id="S-JsonbqND__SWyfuir0-113" value="&lt;span style=&quot;font-size: 19px;&quot;&gt;Eben&lt;/span&gt;" style="text;html=1;align=center;verticalAlign=middle;whiteSpace=wrap;rounded=0;" parent="S-JsonbqND__SWyfuir0-112" vertex="1">
          <mxGeometry x="30" y="56" width="60" height="30" as="geometry" />
        </mxCell>
        <mxCell id="S-JsonbqND__SWyfuir0-114" value="&lt;font style=&quot;font-size: 15px;&quot;&gt;Implement Algorithm&lt;/font&gt;" style="swimlane;whiteSpace=wrap;html=1;startSize=50;" parent="1" vertex="1">
          <mxGeometry x="1452" y="1372" width="130" height="90" as="geometry" />
        </mxCell>
        <mxCell id="S-JsonbqND__SWyfuir0-115" value="&lt;span style=&quot;font-size: 19px;&quot;&gt;Blessing&lt;/span&gt;" style="text;html=1;align=center;verticalAlign=middle;whiteSpace=wrap;rounded=0;" parent="S-JsonbqND__SWyfuir0-114" vertex="1">
          <mxGeometry x="36" y="56" width="60" height="30" as="geometry" />
        </mxCell>
        <mxCell id="S-JsonbqND__SWyfuir0-116" value="&lt;span style=&quot;font-size: 19px;&quot;&gt;Database Design&lt;/span&gt;" style="swimlane;whiteSpace=wrap;html=1;startSize=50;" parent="1" vertex="1">
          <mxGeometry x="1452" y="1224" width="120" height="90" as="geometry" />
        </mxCell>
        <mxCell id="S-JsonbqND__SWyfuir0-117" value="&lt;span style=&quot;font-size: 19px;&quot;&gt;Avish&lt;/span&gt;" style="text;html=1;align=center;verticalAlign=middle;whiteSpace=wrap;rounded=0;" parent="S-JsonbqND__SWyfuir0-116" vertex="1">
          <mxGeometry x="30" y="56" width="60" height="30" as="geometry" />
        </mxCell>
        <mxCell id="S-JsonbqND__SWyfuir0-118" value="&lt;font style=&quot;font-size: 13px;&quot;&gt;Implement Security Measures&lt;/font&gt;" style="swimlane;whiteSpace=wrap;html=1;startSize=50;" parent="1" vertex="1">
          <mxGeometry x="1452" y="1522" width="120" height="90" as="geometry" />
        </mxCell>
        <mxCell id="S-JsonbqND__SWyfuir0-119" value="&lt;span style=&quot;font-size: 19px;&quot;&gt;Kaushil&lt;/span&gt;" style="text;html=1;align=center;verticalAlign=middle;whiteSpace=wrap;rounded=0;" parent="S-JsonbqND__SWyfuir0-118" vertex="1">
          <mxGeometry x="30" y="56" width="60" height="30" as="geometry" />
        </mxCell>
        <mxCell id="S-JsonbqND__SWyfuir0-120" value="&lt;span style=&quot;font-size: 19px;&quot;&gt;Database Design&lt;/span&gt;" style="swimlane;whiteSpace=wrap;html=1;startSize=50;" parent="1" vertex="1">
          <mxGeometry x="1867" y="1580" width="120" height="90" as="geometry" />
        </mxCell>
        <mxCell id="S-JsonbqND__SWyfuir0-121" value="&lt;span style=&quot;font-size: 19px;&quot;&gt;Kaushil&lt;/span&gt;" style="text;html=1;align=center;verticalAlign=middle;whiteSpace=wrap;rounded=0;" parent="S-JsonbqND__SWyfuir0-120" vertex="1">
          <mxGeometry x="30" y="56" width="60" height="30" as="geometry" />
        </mxCell>
        <mxCell id="S-JsonbqND__SWyfuir0-122" value="&lt;span style=&quot;font-size: 19px;&quot;&gt;Design User Interface&lt;/span&gt;" style="swimlane;whiteSpace=wrap;html=1;startSize=50;" parent="1" vertex="1">
          <mxGeometry x="1862" y="1232" width="120" height="90" as="geometry" />
        </mxCell>
        <mxCell id="S-JsonbqND__SWyfuir0-123" value="&lt;span style=&quot;font-size: 19px;&quot;&gt;Blessing&lt;/span&gt;" style="text;html=1;align=center;verticalAlign=middle;whiteSpace=wrap;rounded=0;" parent="S-JsonbqND__SWyfuir0-122" vertex="1">
          <mxGeometry x="30" y="56" width="60" height="30" as="geometry" />
        </mxCell>
        <mxCell id="S-JsonbqND__SWyfuir0-124" value="&lt;font style=&quot;font-size: 16px;&quot;&gt;Implement Algorithm&lt;/font&gt;" style="swimlane;whiteSpace=wrap;html=1;startSize=50;" parent="1" vertex="1">
          <mxGeometry x="1867" y="1405" width="120" height="90" as="geometry" />
        </mxCell>
        <mxCell id="S-JsonbqND__SWyfuir0-125" value="&lt;font style=&quot;font-size: 19px;&quot;&gt;Avish&lt;/font&gt;" style="text;html=1;align=center;verticalAlign=middle;whiteSpace=wrap;rounded=0;" parent="S-JsonbqND__SWyfuir0-124" vertex="1">
          <mxGeometry x="30" y="56" width="60" height="30" as="geometry" />
        </mxCell>
        <mxCell id="S-JsonbqND__SWyfuir0-126" value="&lt;font style=&quot;font-size: 19px;&quot;&gt;Implementing API&lt;/font&gt;" style="swimlane;whiteSpace=wrap;html=1;startSize=50;" parent="1" vertex="1">
          <mxGeometry x="2052" y="1231" width="120" height="90" as="geometry" />
        </mxCell>
        <mxCell id="S-JsonbqND__SWyfuir0-127" value="&lt;span style=&quot;font-size: 19px;&quot;&gt;Kaushil&lt;/span&gt;" style="text;html=1;align=center;verticalAlign=middle;whiteSpace=wrap;rounded=0;" parent="S-JsonbqND__SWyfuir0-126" vertex="1">
          <mxGeometry x="30" y="56" width="60" height="30" as="geometry" />
        </mxCell>
        <mxCell id="S-JsonbqND__SWyfuir0-128" value="&lt;span style=&quot;font-size: 19px;&quot;&gt;Allow Uploading&lt;/span&gt;" style="swimlane;whiteSpace=wrap;html=1;startSize=50;" parent="1" vertex="1">
          <mxGeometry x="2057" y="1400" width="120" height="90" as="geometry" />
        </mxCell>
        <mxCell id="S-JsonbqND__SWyfuir0-129" value="&lt;span style=&quot;font-size: 19px;&quot;&gt;Eben&lt;/span&gt;" style="text;html=1;align=center;verticalAlign=middle;whiteSpace=wrap;rounded=0;" parent="S-JsonbqND__SWyfuir0-128" vertex="1">
          <mxGeometry x="30" y="56" width="60" height="30" as="geometry" />
        </mxCell>
        <mxCell id="S-JsonbqND__SWyfuir0-130" style="edgeStyle=orthogonalEdgeStyle;rounded=0;orthogonalLoop=1;jettySize=auto;html=1;exitX=0.5;exitY=1;exitDx=0;exitDy=0;entryX=0.589;entryY=-0.034;entryDx=0;entryDy=0;entryPerimeter=0;endArrow=none;endFill=0;" parent="1" source="S-JsonbqND__SWyfuir0-24" target="S-JsonbqND__SWyfuir0-3" edge="1">
          <mxGeometry relative="1" as="geometry" />
        </mxCell>
        <mxCell id="S-JsonbqND__SWyfuir0-131" style="edgeStyle=orthogonalEdgeStyle;rounded=0;orthogonalLoop=1;jettySize=auto;html=1;exitX=0.5;exitY=1;exitDx=0;exitDy=0;entryX=0.608;entryY=-0.004;entryDx=0;entryDy=0;entryPerimeter=0;endArrow=none;endFill=0;" parent="1" source="S-JsonbqND__SWyfuir0-14" target="S-JsonbqND__SWyfuir0-68" edge="1">
          <mxGeometry relative="1" as="geometry" />
        </mxCell>
        <mxCell id="S-JsonbqND__SWyfuir0-132" style="edgeStyle=orthogonalEdgeStyle;rounded=0;orthogonalLoop=1;jettySize=auto;html=1;exitX=0;exitY=0.5;exitDx=0;exitDy=0;entryX=0;entryY=0.5;entryDx=0;entryDy=0;endArrow=none;endFill=0;" parent="1" source="S-JsonbqND__SWyfuir0-134" target="S-JsonbqND__SWyfuir0-85" edge="1">
          <mxGeometry relative="1" as="geometry" />
        </mxCell>
        <mxCell id="S-JsonbqND__SWyfuir0-133" style="edgeStyle=orthogonalEdgeStyle;rounded=0;orthogonalLoop=1;jettySize=auto;html=1;exitX=0;exitY=0.5;exitDx=0;exitDy=0;entryX=0;entryY=0.5;entryDx=0;entryDy=0;endArrow=none;endFill=0;" parent="1" source="S-JsonbqND__SWyfuir0-134" target="S-JsonbqND__SWyfuir0-83" edge="1">
          <mxGeometry relative="1" as="geometry" />
        </mxCell>
        <mxCell id="S-JsonbqND__SWyfuir0-134" value="&lt;font style=&quot;font-size: 15px;&quot;&gt;User Interface Design&lt;/font&gt;" style="swimlane;whiteSpace=wrap;html=1;startSize=50;" parent="1" vertex="1">
          <mxGeometry x="702" y="1018" width="120" height="90" as="geometry" />
        </mxCell>
        <mxCell id="S-JsonbqND__SWyfuir0-135" value="&lt;font style=&quot;font-size: 19px;&quot;&gt;Avish&lt;/font&gt;" style="text;html=1;align=center;verticalAlign=middle;whiteSpace=wrap;rounded=0;" parent="S-JsonbqND__SWyfuir0-134" vertex="1">
          <mxGeometry x="30" y="57" width="60" height="24" as="geometry" />
        </mxCell>
        <mxCell id="S-JsonbqND__SWyfuir0-137" style="edgeStyle=orthogonalEdgeStyle;rounded=0;orthogonalLoop=1;jettySize=auto;html=1;exitX=0;exitY=0.5;exitDx=0;exitDy=0;entryX=-0.01;entryY=0.562;entryDx=0;entryDy=0;entryPerimeter=0;endArrow=none;endFill=0;" parent="1" source="S-JsonbqND__SWyfuir0-134" target="S-JsonbqND__SWyfuir0-98" edge="1">
          <mxGeometry relative="1" as="geometry" />
        </mxCell>
        <mxCell id="S-JsonbqND__SWyfuir0-139" value="&lt;font style=&quot;font-size: 17px;&quot;&gt;Javscript Interactions&lt;/font&gt;" style="swimlane;whiteSpace=wrap;html=1;startSize=50;" parent="1" vertex="1">
          <mxGeometry x="1213" y="1525" width="120" height="90" as="geometry" />
        </mxCell>
        <mxCell id="S-JsonbqND__SWyfuir0-140" value="&lt;span style=&quot;font-size: 19px;&quot;&gt;Avish&lt;/span&gt;" style="text;html=1;align=center;verticalAlign=middle;whiteSpace=wrap;rounded=0;" parent="S-JsonbqND__SWyfuir0-139" vertex="1">
          <mxGeometry x="34" y="56" width="60" height="30" as="geometry" />
        </mxCell>
        <mxCell id="S-JsonbqND__SWyfuir0-141" style="edgeStyle=orthogonalEdgeStyle;rounded=0;orthogonalLoop=1;jettySize=auto;html=1;exitX=0;exitY=0.5;exitDx=0;exitDy=0;entryX=0.008;entryY=0.6;entryDx=0;entryDy=0;entryPerimeter=0;endArrow=none;endFill=0;" parent="1" source="S-JsonbqND__SWyfuir0-108" target="S-JsonbqND__SWyfuir0-48" edge="1">
          <mxGeometry relative="1" as="geometry" />
        </mxCell>
        <mxCell id="S-JsonbqND__SWyfuir0-142" value="&lt;font style=&quot;font-size: 35px;&quot;&gt;Level 0&lt;/font&gt;" style="text;html=1;align=center;verticalAlign=middle;resizable=0;points=[];autosize=1;strokeColor=none;fillColor=none;" parent="1" vertex="1">
          <mxGeometry x="2185" y="475" width="140" height="60" as="geometry" />
        </mxCell>
        <mxCell id="S-JsonbqND__SWyfuir0-143" value="&lt;font style=&quot;font-size: 35px;&quot;&gt;Level 3&lt;/font&gt;" style="text;html=1;align=center;verticalAlign=middle;resizable=0;points=[];autosize=1;strokeColor=none;fillColor=none;" parent="1" vertex="1">
          <mxGeometry x="2188" y="1271" width="140" height="60" as="geometry" />
        </mxCell>
        <mxCell id="S-JsonbqND__SWyfuir0-144" value="&lt;font style=&quot;font-size: 35px;&quot;&gt;Level 2&lt;/font&gt;" style="text;html=1;align=center;verticalAlign=middle;resizable=0;points=[];autosize=1;strokeColor=none;fillColor=none;" parent="1" vertex="1">
          <mxGeometry x="2190" y="1028" width="140" height="60" as="geometry" />
        </mxCell>
        <mxCell id="S-JsonbqND__SWyfuir0-145" value="&lt;font style=&quot;font-size: 35px;&quot;&gt;Level 1&lt;/font&gt;" style="text;html=1;align=center;verticalAlign=middle;resizable=0;points=[];autosize=1;strokeColor=none;fillColor=none;" parent="1" vertex="1">
          <mxGeometry x="2190" y="790" width="140" height="60" as="geometry" />
        </mxCell>
        <mxCell id="S-JsonbqND__SWyfuir0-146" style="edgeStyle=orthogonalEdgeStyle;rounded=0;orthogonalLoop=1;jettySize=auto;html=1;exitX=0;exitY=0.5;exitDx=0;exitDy=0;entryX=-0.006;entryY=0.591;entryDx=0;entryDy=0;entryPerimeter=0;endArrow=none;endFill=0;" parent="1" source="S-JsonbqND__SWyfuir0-59" target="S-JsonbqND__SWyfuir0-124" edge="1">
          <mxGeometry relative="1" as="geometry" />
        </mxCell>
        <mxCell id="S-JsonbqND__SWyfuir0-147" value="&lt;font style=&quot;font-size: 22px;&quot;&gt;1&lt;/font&gt;" style="text;html=1;align=center;verticalAlign=middle;resizable=0;points=[];autosize=1;strokeColor=none;fillColor=none;" parent="1" vertex="1">
          <mxGeometry x="98" y="760" width="40" height="40" as="geometry" />
        </mxCell>
        <mxCell id="S-JsonbqND__SWyfuir0-148" value="&lt;font style=&quot;font-size: 22px;&quot;&gt;5&lt;/font&gt;" style="text;html=1;align=center;verticalAlign=middle;resizable=0;points=[];autosize=1;strokeColor=none;fillColor=none;" parent="1" vertex="1">
          <mxGeometry x="1862" y="760" width="40" height="40" as="geometry" />
        </mxCell>
        <mxCell id="S-JsonbqND__SWyfuir0-149" value="&lt;font style=&quot;font-size: 22px;&quot;&gt;4&lt;/font&gt;" style="text;html=1;align=center;verticalAlign=middle;resizable=0;points=[];autosize=1;strokeColor=none;fillColor=none;" parent="1" vertex="1">
          <mxGeometry x="1472" y="760" width="40" height="40" as="geometry" />
        </mxCell>
        <mxCell id="S-JsonbqND__SWyfuir0-150" value="&lt;font style=&quot;font-size: 22px;&quot;&gt;3&lt;/font&gt;" style="text;html=1;align=center;verticalAlign=middle;resizable=0;points=[];autosize=1;strokeColor=none;fillColor=none;" parent="1" vertex="1">
          <mxGeometry x="1049" y="760" width="40" height="40" as="geometry" />
        </mxCell>
        <mxCell id="S-JsonbqND__SWyfuir0-151" value="&lt;font style=&quot;font-size: 22px;&quot;&gt;2&lt;/font&gt;" style="text;html=1;align=center;verticalAlign=middle;resizable=0;points=[];autosize=1;strokeColor=none;fillColor=none;" parent="1" vertex="1">
          <mxGeometry x="544" y="760" width="40" height="40" as="geometry" />
        </mxCell>
        <mxCell id="S-JsonbqND__SWyfuir0-152" value="&lt;font style=&quot;font-size: 22px;&quot;&gt;1.2&lt;/font&gt;" style="text;html=1;align=center;verticalAlign=middle;resizable=0;points=[];autosize=1;strokeColor=none;fillColor=none;" parent="1" vertex="1">
          <mxGeometry x="213" y="1018" width="50" height="40" as="geometry" />
        </mxCell>
        <mxCell id="S-JsonbqND__SWyfuir0-153" value="&lt;font style=&quot;font-size: 22px;&quot;&gt;2.2&lt;/font&gt;" style="text;html=1;align=center;verticalAlign=middle;resizable=0;points=[];autosize=1;strokeColor=none;fillColor=none;" parent="1" vertex="1">
          <mxGeometry x="657" y="1018" width="50" height="40" as="geometry" />
        </mxCell>
        <mxCell id="S-JsonbqND__SWyfuir0-154" value="&lt;font style=&quot;font-size: 22px;&quot;&gt;2.1&lt;/font&gt;" style="text;html=1;align=center;verticalAlign=middle;resizable=0;points=[];autosize=1;strokeColor=none;fillColor=none;" parent="1" vertex="1">
          <mxGeometry x="487" y="1018" width="50" height="40" as="geometry" />
        </mxCell>
        <mxCell id="S-JsonbqND__SWyfuir0-155" value="&lt;span style=&quot;font-size: 22px;&quot;&gt;3.2&lt;/span&gt;" style="text;html=1;align=center;verticalAlign=middle;resizable=0;points=[];autosize=1;strokeColor=none;fillColor=none;" parent="1" vertex="1">
          <mxGeometry x="1163" y="1019" width="50" height="40" as="geometry" />
        </mxCell>
        <mxCell id="S-JsonbqND__SWyfuir0-156" value="&lt;font style=&quot;font-size: 22px;&quot;&gt;3.1&lt;/font&gt;" style="text;html=1;align=center;verticalAlign=middle;resizable=0;points=[];autosize=1;strokeColor=none;fillColor=none;" parent="1" vertex="1">
          <mxGeometry x="939" y="1019" width="50" height="40" as="geometry" />
        </mxCell>
        <mxCell id="S-JsonbqND__SWyfuir0-157" value="&lt;font style=&quot;font-size: 22px;&quot;&gt;4.2&lt;/font&gt;" style="text;html=1;align=center;verticalAlign=middle;resizable=0;points=[];autosize=1;strokeColor=none;fillColor=none;" parent="1" vertex="1">
          <mxGeometry x="1572" y="1018" width="50" height="40" as="geometry" />
        </mxCell>
        <mxCell id="S-JsonbqND__SWyfuir0-158" value="&lt;font style=&quot;font-size: 22px;&quot;&gt;4.1&lt;/font&gt;" style="text;html=1;align=center;verticalAlign=middle;resizable=0;points=[];autosize=1;strokeColor=none;fillColor=none;" parent="1" vertex="1">
          <mxGeometry x="1407" y="1018" width="50" height="40" as="geometry" />
        </mxCell>
        <mxCell id="S-JsonbqND__SWyfuir0-159" value="&lt;font style=&quot;font-size: 22px;&quot;&gt;5.2&lt;/font&gt;" style="text;html=1;align=center;verticalAlign=middle;resizable=0;points=[];autosize=1;strokeColor=none;fillColor=none;" parent="1" vertex="1">
          <mxGeometry x="2007" y="1018" width="50" height="40" as="geometry" />
        </mxCell>
        <mxCell id="S-JsonbqND__SWyfuir0-160" value="&lt;span style=&quot;font-size: 22px;&quot;&gt;5.1&lt;/span&gt;" style="text;html=1;align=center;verticalAlign=middle;resizable=0;points=[];autosize=1;strokeColor=none;fillColor=none;" parent="1" vertex="1">
          <mxGeometry x="1817" y="1018" width="50" height="40" as="geometry" />
        </mxCell>
        <mxCell id="S-JsonbqND__SWyfuir0-161" value="&lt;font style=&quot;font-size: 22px;&quot;&gt;1.1.3&lt;/font&gt;" style="text;html=1;align=center;verticalAlign=middle;resizable=0;points=[];autosize=1;strokeColor=none;fillColor=none;" parent="1" vertex="1">
          <mxGeometry x="128" y="1492" width="70" height="40" as="geometry" />
        </mxCell>
        <mxCell id="S-JsonbqND__SWyfuir0-162" value="&lt;font style=&quot;font-size: 22px;&quot;&gt;1.1.2&lt;/font&gt;" style="text;html=1;align=center;verticalAlign=middle;resizable=0;points=[];autosize=1;strokeColor=none;fillColor=none;" parent="1" vertex="1">
          <mxGeometry x="128" y="1342" width="70" height="40" as="geometry" />
        </mxCell>
        <mxCell id="S-JsonbqND__SWyfuir0-163" value="&lt;font style=&quot;font-size: 22px;&quot;&gt;1.1.1&lt;/font&gt;" style="text;html=1;align=center;verticalAlign=middle;resizable=0;points=[];autosize=1;strokeColor=none;fillColor=none;" parent="1" vertex="1">
          <mxGeometry x="138" y="1148" width="70" height="40" as="geometry" />
        </mxCell>
        <mxCell id="S-JsonbqND__SWyfuir0-164" value="&lt;font style=&quot;font-size: 22px;&quot;&gt;1.2.3&lt;/font&gt;" style="text;html=1;align=center;verticalAlign=middle;resizable=0;points=[];autosize=1;strokeColor=none;fillColor=none;" parent="1" vertex="1">
          <mxGeometry x="308" y="1519" width="70" height="40" as="geometry" />
        </mxCell>
        <mxCell id="S-JsonbqND__SWyfuir0-165" value="&lt;font style=&quot;font-size: 22px;&quot;&gt;1.2.2&lt;/font&gt;" style="text;html=1;align=center;verticalAlign=middle;resizable=0;points=[];autosize=1;strokeColor=none;fillColor=none;" parent="1" vertex="1">
          <mxGeometry x="308" y="1339" width="70" height="40" as="geometry" />
        </mxCell>
        <mxCell id="S-JsonbqND__SWyfuir0-166" value="&lt;font style=&quot;font-size: 22px;&quot;&gt;1.2.1&lt;/font&gt;" style="text;html=1;align=center;verticalAlign=middle;resizable=0;points=[];autosize=1;strokeColor=none;fillColor=none;" parent="1" vertex="1">
          <mxGeometry x="308" y="1159" width="70" height="40" as="geometry" />
        </mxCell>
        <mxCell id="S-JsonbqND__SWyfuir0-167" value="&lt;font style=&quot;font-size: 22px;&quot;&gt;2.1.1&lt;/font&gt;" style="text;html=1;align=center;verticalAlign=middle;resizable=0;points=[];autosize=1;strokeColor=none;fillColor=none;" parent="1" vertex="1">
          <mxGeometry x="584" y="1166" width="70" height="40" as="geometry" />
        </mxCell>
        <mxCell id="S-JsonbqND__SWyfuir0-168" value="&lt;font style=&quot;font-size: 22px;&quot;&gt;2.1.3&lt;/font&gt;" style="text;html=1;align=center;verticalAlign=middle;resizable=0;points=[];autosize=1;strokeColor=none;fillColor=none;" parent="1" vertex="1">
          <mxGeometry x="592" y="1446" width="70" height="40" as="geometry" />
        </mxCell>
        <mxCell id="S-JsonbqND__SWyfuir0-169" value="&lt;font style=&quot;font-size: 22px;&quot;&gt;2.2.1&lt;/font&gt;" style="text;html=1;align=center;verticalAlign=middle;resizable=0;points=[];autosize=1;strokeColor=none;fillColor=none;" parent="1" vertex="1">
          <mxGeometry x="753" y="1168" width="70" height="40" as="geometry" />
        </mxCell>
        <mxCell id="S-JsonbqND__SWyfuir0-170" value="&lt;font style=&quot;font-size: 22px;&quot;&gt;2.2.2&lt;/font&gt;" style="text;html=1;align=center;verticalAlign=middle;resizable=0;points=[];autosize=1;strokeColor=none;fillColor=none;" parent="1" vertex="1">
          <mxGeometry x="760" y="1298" width="70" height="40" as="geometry" />
        </mxCell>
        <mxCell id="S-JsonbqND__SWyfuir0-171" value="&lt;font style=&quot;font-size: 22px;&quot;&gt;2.2.3&lt;/font&gt;" style="text;html=1;align=center;verticalAlign=middle;resizable=0;points=[];autosize=1;strokeColor=none;fillColor=none;" parent="1" vertex="1">
          <mxGeometry x="753" y="1486" width="70" height="40" as="geometry" />
        </mxCell>
        <mxCell id="S-JsonbqND__SWyfuir0-172" value="&lt;font style=&quot;font-size: 22px;&quot;&gt;3.1.3&lt;/font&gt;" style="text;html=1;align=center;verticalAlign=middle;resizable=0;points=[];autosize=1;strokeColor=none;fillColor=none;" parent="1" vertex="1">
          <mxGeometry x="1044" y="1470" width="70" height="40" as="geometry" />
        </mxCell>
        <mxCell id="S-JsonbqND__SWyfuir0-173" value="&lt;font style=&quot;font-size: 22px;&quot;&gt;3.1.2&lt;/font&gt;" style="text;html=1;align=center;verticalAlign=middle;resizable=0;points=[];autosize=1;strokeColor=none;fillColor=none;" parent="1" vertex="1">
          <mxGeometry x="1044" y="1330" width="70" height="40" as="geometry" />
        </mxCell>
        <mxCell id="S-JsonbqND__SWyfuir0-174" value="&lt;span style=&quot;font-size: 22px;&quot;&gt;3.1.1&lt;/span&gt;" style="text;html=1;align=center;verticalAlign=middle;resizable=0;points=[];autosize=1;strokeColor=none;fillColor=none;" parent="1" vertex="1">
          <mxGeometry x="1046" y="1190" width="70" height="40" as="geometry" />
        </mxCell>
        <mxCell id="S-JsonbqND__SWyfuir0-175" value="&lt;span style=&quot;font-size: 22px;&quot;&gt;3.2.3&lt;/span&gt;" style="text;html=1;align=center;verticalAlign=middle;resizable=0;points=[];autosize=1;strokeColor=none;fillColor=none;" parent="1" vertex="1">
          <mxGeometry x="1273" y="1492" width="70" height="40" as="geometry" />
        </mxCell>
        <mxCell id="S-JsonbqND__SWyfuir0-176" value="&lt;span style=&quot;font-size: 22px;&quot;&gt;3.2.2&lt;/span&gt;" style="text;html=1;align=center;verticalAlign=middle;resizable=0;points=[];autosize=1;strokeColor=none;fillColor=none;" parent="1" vertex="1">
          <mxGeometry x="1273" y="1348" width="70" height="40" as="geometry" />
        </mxCell>
        <mxCell id="S-JsonbqND__SWyfuir0-177" value="&lt;span style=&quot;font-size: 22px;&quot;&gt;3.2.1&lt;/span&gt;" style="text;html=1;align=center;verticalAlign=middle;resizable=0;points=[];autosize=1;strokeColor=none;fillColor=none;" parent="1" vertex="1">
          <mxGeometry x="1277" y="1187" width="70" height="40" as="geometry" />
        </mxCell>
        <mxCell id="S-JsonbqND__SWyfuir0-178" value="&lt;font style=&quot;font-size: 22px;&quot;&gt;4.1.3&lt;/font&gt;" style="text;html=1;align=center;verticalAlign=middle;resizable=0;points=[];autosize=1;strokeColor=none;fillColor=none;" parent="1" vertex="1">
          <mxGeometry x="1511" y="1490" width="70" height="40" as="geometry" />
        </mxCell>
        <mxCell id="S-JsonbqND__SWyfuir0-179" value="&lt;font style=&quot;font-size: 22px;&quot;&gt;4.1.1&lt;/font&gt;" style="text;html=1;align=center;verticalAlign=middle;resizable=0;points=[];autosize=1;strokeColor=none;fillColor=none;" parent="1" vertex="1">
          <mxGeometry x="1514" y="1192" width="70" height="40" as="geometry" />
        </mxCell>
        <mxCell id="S-JsonbqND__SWyfuir0-180" value="&lt;font style=&quot;font-size: 22px;&quot;&gt;4.1.2&lt;/font&gt;" style="text;html=1;align=center;verticalAlign=middle;resizable=0;points=[];autosize=1;strokeColor=none;fillColor=none;" parent="1" vertex="1">
          <mxGeometry x="1522" y="1342" width="70" height="40" as="geometry" />
        </mxCell>
        <mxCell id="S-JsonbqND__SWyfuir0-181" value="&lt;font style=&quot;font-size: 22px;&quot;&gt;4.2.3&lt;/font&gt;" style="text;html=1;align=center;verticalAlign=middle;resizable=0;points=[];autosize=1;strokeColor=none;fillColor=none;" parent="1" vertex="1">
          <mxGeometry x="1682" y="1525" width="70" height="40" as="geometry" />
        </mxCell>
        <mxCell id="S-JsonbqND__SWyfuir0-182" value="&lt;font style=&quot;font-size: 22px;&quot;&gt;4.2.2&lt;/font&gt;" style="text;html=1;align=center;verticalAlign=middle;resizable=0;points=[];autosize=1;strokeColor=none;fillColor=none;" parent="1" vertex="1">
          <mxGeometry x="1682" y="1387" width="70" height="40" as="geometry" />
        </mxCell>
        <mxCell id="S-JsonbqND__SWyfuir0-183" value="&lt;font style=&quot;font-size: 22px;&quot;&gt;4.2.1&lt;/font&gt;" style="text;html=1;align=center;verticalAlign=middle;resizable=0;points=[];autosize=1;strokeColor=none;fillColor=none;" parent="1" vertex="1">
          <mxGeometry x="1679" y="1202" width="70" height="40" as="geometry" />
        </mxCell>
        <mxCell id="S-JsonbqND__SWyfuir0-184" value="&lt;span style=&quot;font-size: 22px;&quot;&gt;5.1.3&lt;/span&gt;" style="text;html=1;align=center;verticalAlign=middle;resizable=0;points=[];autosize=1;strokeColor=none;fillColor=none;" parent="1" vertex="1">
          <mxGeometry x="1926" y="1550" width="70" height="40" as="geometry" />
        </mxCell>
        <mxCell id="S-JsonbqND__SWyfuir0-185" value="&lt;span style=&quot;font-size: 22px;&quot;&gt;5.1.2&lt;/span&gt;" style="text;html=1;align=center;verticalAlign=middle;resizable=0;points=[];autosize=1;strokeColor=none;fillColor=none;" parent="1" vertex="1">
          <mxGeometry x="1924" y="1375" width="70" height="40" as="geometry" />
        </mxCell>
        <mxCell id="S-JsonbqND__SWyfuir0-186" value="&lt;span style=&quot;font-size: 22px;&quot;&gt;5.1.1&lt;/span&gt;" style="text;html=1;align=center;verticalAlign=middle;resizable=0;points=[];autosize=1;strokeColor=none;fillColor=none;" parent="1" vertex="1">
          <mxGeometry x="1924" y="1202" width="70" height="40" as="geometry" />
        </mxCell>
        <mxCell id="S-JsonbqND__SWyfuir0-187" value="&lt;font style=&quot;font-size: 22px;&quot;&gt;5.2.3&lt;/font&gt;" style="text;html=1;align=center;verticalAlign=middle;resizable=0;points=[];autosize=1;strokeColor=none;fillColor=none;" parent="1" vertex="1">
          <mxGeometry x="2115" y="1520" width="70" height="40" as="geometry" />
        </mxCell>
        <mxCell id="S-JsonbqND__SWyfuir0-188" value="&lt;font style=&quot;font-size: 22px;&quot;&gt;5.2.2&lt;/font&gt;" style="text;html=1;align=center;verticalAlign=middle;resizable=0;points=[];autosize=1;strokeColor=none;fillColor=none;" parent="1" vertex="1">
          <mxGeometry x="2118" y="1370" width="70" height="40" as="geometry" />
        </mxCell>
        <mxCell id="S-JsonbqND__SWyfuir0-189" value="&lt;font style=&quot;font-size: 22px;&quot;&gt;5.2.1&lt;/font&gt;" style="text;html=1;align=center;verticalAlign=middle;resizable=0;points=[];autosize=1;strokeColor=none;fillColor=none;" parent="1" vertex="1">
          <mxGeometry x="2112" y="1202" width="70" height="40" as="geometry" />
        </mxCell>
        <mxCell id="S-JsonbqND__SWyfuir0-190" value="&lt;font style=&quot;font-size: 22px;&quot;&gt;1.1&lt;/font&gt;" style="text;html=1;align=center;verticalAlign=middle;resizable=0;points=[];autosize=1;strokeColor=none;fillColor=none;" parent="1" vertex="1">
          <mxGeometry x="28" y="1018" width="50" height="40" as="geometry" />
        </mxCell>
      </root>
    </mxGraphModel>
  </diagram>
</mxfile>
